<svg width="890" height="507" viewBox="0 0 890 507" fill="none" xmlns="http://www.w3.org/2000/svg">
<ellipse cx="539.701" cy="42.1548" rx="436.5" ry="328" transform="rotate(18.19 539.701 42.1548)" fill="#FDF9FA"/>
<mask id="mask0_86_1604" style="mask-type:alpha" maskUnits="userSpaceOnUse" x="112" y="-299" width="855" height="682">
<ellipse cx="539.702" cy="42.1548" rx="436.5" ry="328" transform="rotate(18.19 539.702 42.1548)" fill="#FDF9FA"/>
</mask>
<g mask="url(#mask0_86_1604)">
<path d="M450.686 231.613C464.155 210.857 477.625 190.101 491.096 169.346C502.18 152.268 513.549 134.869 529.514 122.234C545.48 109.602 567.145 102.35 586.548 108.516C609.243 115.729 623.408 139.858 625.195 163.605C626.98 187.351 618.621 210.688 608.451 232.219C595.798 259 580.126 284.353 561.827 307.641C545.204 328.799 521.511 352.702 492.711 353.839C475.099 354.533 458.323 346.463 443.49 336.943C422.936 323.757 418.334 314.299 423.226 289.863C427.455 268.728 439.1 249.466 450.686 231.613Z" fill="#E60F05" fill-opacity="0.2"/>
<path d="M588.885 157.518C588.433 152.877 587.729 148.296 586.794 143.728C585.899 139.364 585.289 134.135 582.621 130.436C581.744 129.22 579.291 129.025 579.002 130.915C578.405 134.8 579.431 138.775 579.966 142.619C580.507 146.498 580.772 150.411 581.101 154.311C581.774 162.296 581.914 170.328 581.498 178.329C580.672 194.198 577.664 209.688 572.859 224.822C570.127 233.421 566.687 241.742 562.58 249.775C560.284 254.271 566.994 258.216 569.414 253.721C585.199 224.403 592.12 190.688 588.885 157.518Z" fill="#E60F05" fill-opacity="0.2"/>
<path d="M552.032 275.244C552.513 273.416 549.871 272.289 548.932 273.974C545.077 280.896 541.203 287.792 536.177 293.949C531.158 300.099 525.321 305.397 520.018 311.271C517.926 313.593 520.53 317.459 523.425 315.769C530.71 311.516 536.511 304.752 541.197 297.832C545.88 290.919 549.9 283.336 552.032 275.244Z" fill="#E60F05" fill-opacity="0.2"/>
<path d="M448.709 161.769C443.837 159.208 438.898 156.768 434.064 154.141C431.697 152.855 429.403 151.424 427.015 150.179C424.53 148.879 421.945 147.768 419.402 146.589C417.321 145.625 415.185 148.062 416.867 149.866C424.493 158.052 434.402 164.354 444.59 168.903C446.622 169.808 449.019 169.465 450.215 167.394C451.296 165.521 450.687 162.809 448.709 161.769Z" fill="#E60F05" fill-opacity="0.2"/>
<path d="M494.378 105.786C490.697 100.444 485.183 96.3618 480.082 92.4274C477.686 90.579 475.279 88.7456 472.862 86.9237C470.232 84.9425 467.458 83.388 464.707 81.615C462.34 80.0896 459.805 83.5196 461.721 85.48C463.854 87.6577 465.761 89.9756 468.008 92.0608C470.324 94.209 472.622 96.3708 474.907 98.5485C477.109 100.65 479.406 102.655 481.651 104.71C484.103 106.951 486.544 109.075 489.474 110.664C492.39 112.246 496.499 108.863 494.378 105.786Z" fill="#E60F05" fill-opacity="0.2"/>
<path d="M587.545 84.293C588.028 82.7619 588.371 81.1782 588.832 79.6394C589.691 76.7835 590.665 73.9629 591.754 71.1852C593.992 65.4889 596.193 59.7526 598.946 54.2777C599.942 52.2933 597.29 49.858 595.667 51.744C591.39 56.716 587.371 61.9272 584.447 67.8207C582.947 70.8453 581.604 73.9409 580.355 77.0772C579.76 78.5721 579.138 80.0847 578.659 81.6252C578.043 83.6131 578.045 85.4126 578.379 87.4483C578.827 90.1811 583.052 91.3634 584.821 89.199C586.085 87.6559 586.941 86.2052 587.545 84.293Z" fill="#E60F05" fill-opacity="0.2"/>
<path d="M633.33 77.6042C632.141 76.7165 630.803 76.9188 629.679 77.8048C625.287 81.2706 621.434 85.2538 617.679 89.3938C615.885 91.3726 614.175 93.4293 612.524 95.529C610.475 98.1368 609.084 100.802 608.161 103.986C607.749 105.402 608.482 107.03 609.74 107.756C611.122 108.554 612.61 108.167 613.794 107.238C616.102 105.425 617.913 103.415 619.621 101.016C621.23 98.7547 622.786 96.4579 624.39 94.1933C627.514 89.7844 630.897 85.5696 634.053 81.1866C634.855 80.0769 634.341 78.3589 633.33 77.6042Z" fill="#E60F05" fill-opacity="0.2"/>
<path d="M676.188 177.859C676.436 175.877 675.197 174.037 673.258 173.492C672.012 173.14 670.838 172.844 669.552 172.685C669.168 172.639 669.034 172.621 669.137 172.635C668.682 172.577 668.226 172.52 667.773 172.463C667.327 172.414 666.883 172.378 666.437 172.341C664.291 172.158 662.151 171.916 660.006 171.724C657.945 171.538 655.885 171.323 653.829 171.075C651.7 170.821 649.609 170.7 647.468 170.584C646.166 170.513 645.01 171.672 644.876 172.909C644.717 174.333 645.552 175.282 646.815 175.798C648.779 176.605 650.7 177.344 652.747 177.911C654.834 178.485 656.927 179.029 659.028 179.54C663.32 180.586 667.846 181.621 672.271 181.369C674.276 181.253 675.933 179.895 676.188 177.859Z" fill="#E60F05" fill-opacity="0.2"/>
<path d="M663.449 231.768C663.978 229.298 662.63 227.478 660.416 226.601C651.871 223.219 642.654 222.046 633.717 220.122C630.453 219.419 629.117 224.453 632.405 225.163C641.469 227.115 649.762 231.31 658.283 234.799C660.341 235.643 663.015 233.797 663.449 231.768Z" fill="#E60F05" fill-opacity="0.2"/>
<path d="M511.579 88.5868C510.33 86.2145 509.022 83.9934 507.495 81.7903C505.928 79.5288 504.2 77.3643 502.514 75.1904C499.305 71.0438 496.009 66.9776 493.04 62.6585C491.273 60.0895 487.04 62.4613 488.8 65.0759C491.81 69.5465 494.449 74.2277 497.199 78.8613C500.033 83.6379 502.916 88.1846 506.541 92.4032C508.969 95.2281 513.204 91.6765 511.579 88.5868Z" fill="#E60F05" fill-opacity="0.2"/>
<path d="M521.435 237.283C513.654 237.115 506.036 234.216 499.498 230.083C497.363 228.732 495.354 227.235 493.466 225.554C492.619 224.799 491.757 224.032 490.993 223.19C490.56 222.712 490.279 222.11 489.92 221.607C489.943 221.599 489.966 221.584 489.992 221.575C490.791 221.341 491.514 221.002 492.365 220.86C494.1 220.574 495.878 220.732 497.578 221.141C505.393 223.016 512.555 228.998 518.383 234.27C519.411 235.201 520.443 236.212 521.435 237.283ZM507.417 194.357C508.077 193.917 508.909 193.676 509.748 193.57C513.33 193.114 517.23 194.509 520.41 196.011C524.404 197.895 528.041 200.331 531.194 203.428C532.233 204.443 533.265 205.565 534.251 206.765C527.436 206.453 520.501 203.944 514.438 201.387C512.925 200.751 511.457 199.977 510.089 199.073C509.011 198.363 507.849 197.32 507.297 196.458C506.87 195.794 506.671 195.283 507.01 194.708C507.048 194.737 507.418 194.393 507.417 194.357ZM548.344 176.036C544.274 176.043 540.178 175.402 536.252 174.041C533.132 172.961 529.936 171.237 527.389 169.107C526.517 168.378 524.905 167.198 524.741 165.982C524.639 165.223 525.404 164.773 526.23 164.327C532.862 160.757 540.907 166.854 545.038 171.564C546.261 172.955 547.346 174.466 548.344 176.036ZM556.177 285.517C544.507 303.446 531.577 322.328 512.922 333.631C503.073 339.601 491.045 342.845 479.485 341.872C477.639 339.971 475.526 338.309 473.367 336.949C472.879 336.641 472.376 336.349 471.881 336.048C472.549 335.03 473.18 333.978 473.817 332.965C475.417 330.421 476.965 327.846 478.61 325.33C481.817 320.428 485.224 315.673 488.756 311.001C495.128 302.57 502.148 294.639 509.614 287.16C510.345 286.904 510.99 286.424 511.347 285.712C511.439 285.528 511.514 285.339 511.603 285.153C511.742 285.015 511.876 284.872 512.018 284.733C512.957 283.819 513.178 282.746 512.957 281.772C513.573 279.905 513.999 277.987 514.243 276.045C518.908 275.076 523.367 273.311 527.277 270.45C536.013 264.058 538.446 253.846 535.333 244.1C537.328 243.311 539.239 242.307 541.012 241.056C550.065 234.669 552.034 224.068 549.16 214.149C551.101 213.296 552.98 212.225 554.765 210.895C559.3 207.514 563.005 202.717 564.125 197.066C565.015 192.583 564.427 188.166 563.135 183.9C566.038 182.967 568.864 181.787 571.538 180.278C575.871 177.836 579.816 174.601 582.972 170.758C584.754 168.587 585.147 165.54 583.026 163.393C581.223 161.567 577.438 161.139 575.66 163.339C571.325 168.707 565.535 172.412 559.19 174.387C554.732 165.835 548.039 158.244 538.912 154.733C533.564 152.677 527.349 152.483 522.086 154.873C516.458 157.428 512.871 163.5 515.101 169.585C516.968 174.679 521.916 178.292 526.504 180.83C531.069 183.356 536.124 185.027 541.285 185.748C545.218 186.299 549.215 186.377 553.165 185.986C554.055 188.583 554.635 191.333 554.333 193.967C553.746 199.093 549.669 202.864 545.015 204.934C539.702 196.272 531.296 189.626 521.876 185.893C516.761 183.867 510.971 182.655 505.569 184.311C499.906 186.051 496.066 191.309 497.059 197.293C498.795 207.77 512.755 211.942 521.341 214.52C527.376 216.332 533.779 217.234 539.927 216.557C540.851 219.239 541.285 222.028 540.946 224.809C540.261 230.437 536.102 233.997 531.175 235.813C528.741 232.345 525.703 229.267 522.541 226.518C518.349 222.881 513.919 219.294 509.132 216.466C504.477 213.715 499.066 211.615 493.578 211.811C487.93 212.011 480.999 214.62 480.798 221.246C480.609 227.466 487.168 232.244 491.579 235.529C496.833 239.445 502.78 242.408 509.038 244.346C514.748 246.118 521.182 246.879 527.332 246.11C528.609 249.251 529.094 252.622 528.194 256.108C526.516 262.619 520.411 266.216 514.187 267.912C513.611 263.666 512.186 259.524 509.922 255.811C504.323 246.637 494.057 241.386 483.387 241.426C474.358 241.46 456.028 247.87 462.284 260.133C463.026 261.588 464.089 262.85 465.315 263.989C464.644 265.402 464.123 266.921 463.577 268.195C462.394 270.959 461.374 273.786 460.402 276.628C458.484 282.234 456.794 287.915 455.064 293.582C453.338 299.23 451.665 304.896 449.669 310.457C448.234 314.454 446.45 318.32 444.903 322.271C443.272 321.446 441.641 320.623 440.008 319.798C428.77 311.526 421.891 297.938 422.73 283.575C423.335 273.233 427.256 263.299 431.489 253.962C436.578 242.736 442.058 231.674 447.658 220.696C459.085 198.303 471.375 176.352 484.492 154.906C490.791 144.609 497.192 134.311 504.56 124.733C511.091 116.244 518.472 107.928 527.372 101.856C535.647 96.2055 545.073 92.752 555.192 93.5222C565.116 94.2753 574.476 98.8326 582.478 104.534C598.19 115.729 611.342 133.703 611.293 153.65C611.266 164.9 607.645 175.868 604.149 186.444C600.336 197.979 595.996 209.334 591.156 220.478C581.33 243.093 569.631 264.852 556.177 285.517ZM476.129 270.444C481.875 273.069 487.905 275.025 494.141 276.077C498.291 276.777 502.651 277.131 506.974 276.941C506.752 278.419 506.367 279.862 505.873 281.259C497.743 289.216 490.184 297.714 483.249 306.735C479.684 311.373 476.341 316.181 473.165 321.091C471.534 323.612 469.927 326.157 468.417 328.752C467.657 330.056 466.844 331.414 466.153 332.82C460.908 330.043 455.469 327.541 450.18 324.922C452.272 321.43 453.803 317.612 455.28 313.78C457.462 308.13 459.336 302.358 461.039 296.548C462.708 290.867 464.316 285.165 466.131 279.528C467.061 276.644 468.085 273.798 469.08 270.94C469.448 269.884 469.955 268.767 470.434 267.625C472.349 268.7 474.327 269.622 476.129 270.444ZM470.543 258.007C469.637 257.131 468.696 256.139 469.258 254.834C470.028 253.049 472.759 251.872 474.424 251.146C481.236 248.176 489.58 248.802 495.976 252.499C501.981 255.974 505.916 262.281 506.956 269.087C498.653 269.639 489.988 267.657 482.388 264.595C478.433 262.999 473.64 261.017 470.543 258.007ZM470.081 353.595C457.657 350.215 446.396 343.676 435.689 336.68C433.098 334.988 430.533 333.26 427.976 331.518C426.862 330.759 425.706 330.042 424.636 329.229C424.621 329.218 424.462 329.058 424.324 328.952C424.424 328.765 424.53 328.418 424.594 328.311C425.318 327.106 426.007 325.115 427.221 324.053C427.525 323.994 427.831 323.9 428.143 323.77C428.248 323.762 428.424 323.778 428.709 323.933C428.908 324.043 429.217 324.138 429.438 324.231C430.83 324.816 432.156 325.638 433.497 326.334C436.693 327.997 439.89 329.662 443.088 331.326C452.16 336.046 461.133 341.811 470.336 346.723C473.76 348.553 476.851 350.592 476.513 354.813C474.307 355.245 472.22 354.18 470.081 353.595ZM465.832 370.076C462.269 370.458 457.9 368.296 454.623 367.18C445.856 364.192 437.365 360.454 429.211 356.06C425.773 354.205 421.104 352.328 418.661 349.15C416.649 346.53 417.502 342.916 418.825 340.173C418.928 339.958 419.057 339.653 419.195 339.384C420.144 339.815 421.061 340.326 421.99 340.796C424.197 341.909 426.402 343.023 428.61 344.139C432.874 346.292 437.141 348.447 441.406 350.601C450.095 354.989 458.76 359.933 467.828 363.562C467.863 363.711 467.878 363.852 467.931 364.004C468.683 366.198 468.848 369.754 465.832 370.076ZM452.002 381.781C449.394 382.818 446.347 382.167 443.761 381.416C437.404 379.575 431.218 376.575 425.471 373.328C422.535 371.674 419.684 369.866 416.952 367.893C414.481 366.108 411.13 364 409.631 361.253C408.358 358.919 409.405 357.351 411.857 357.201C413.526 357.095 415.22 357.041 416.906 357.018C418.872 358.478 421.053 359.704 423.096 360.896C433.305 366.847 444.133 371.758 455.311 375.586C455.073 376.311 455.02 377.097 455.293 377.881C455.892 379.605 453.31 381.262 452.002 381.781ZM590.197 240.34C595.917 228.522 601.065 216.433 605.637 204.123C609.955 192.49 614.244 180.549 616.722 168.365C618.981 157.249 618.962 145.913 615.086 135.152C611.487 125.161 605.414 116.22 597.997 108.664C583.16 93.5581 561.174 81.8657 539.636 88.1827C517.171 94.7707 501.519 115.804 489.193 134.404C474.619 156.398 461.521 179.499 449.151 202.794C442.832 214.691 436.759 226.722 430.937 238.873C425.885 249.42 420.562 260.105 417.696 271.5C415.088 281.872 414.839 292.887 418.745 302.967C420.504 307.501 422.917 311.712 425.868 315.504C425.284 315.657 424.692 315.856 424.092 316.153C423.005 316.692 422.377 317.463 422.077 318.315C420.468 319.704 419.191 321.49 418.11 323.333C416.405 326.237 415.17 329.521 416.752 332.669C414.673 333.464 413.451 335.368 412.543 337.36C410.603 341.623 409.707 346.573 411.694 350.992C411.753 351.123 411.837 351.238 411.902 351.368C410.848 351.274 409.78 351.286 408.773 351.499C405.18 352.257 402.747 355.547 402.692 359.183C402.628 363.477 405.369 366.799 408.434 369.474C410.12 370.946 411.881 372.345 413.687 373.679C413.532 373.803 413.363 373.907 413.217 374.037C412.525 374.64 411.98 375.493 411.536 376.299C410.575 378.05 409.956 379.989 409.813 381.984C409.548 385.648 410.95 389.214 413.212 392.034C417.778 397.725 427.078 399.149 433.462 395.989C435.404 395.028 437.079 393.381 438.208 391.539C438.746 390.666 439.169 389.653 439.435 388.659C439.53 388.296 439.585 387.931 439.625 387.566C441.676 388.318 443.767 388.937 445.916 389.262C449.822 389.856 453.876 389.469 457.264 387.3C460.788 385.046 462.582 381.819 463.503 377.853L463.503 377.844C466.199 378.2 468.887 377.973 471.378 376.474C475.735 373.849 477.189 368.348 476.271 363.565C477.283 363.563 478.288 363.465 479.271 363.188C483.106 362.109 485.238 358.717 485.303 354.833C485.334 352.958 485.001 351.181 484.413 349.499C489.435 349.426 494.424 348.739 499.123 347.507C521.183 341.724 537.719 324.036 550.77 306.296C565.942 285.676 579.052 263.37 590.197 240.34Z" fill="#E60F05" fill-opacity="0.64"/>
</g>
</svg>
