<svg width="250" height="64" viewBox="0 0 250 64" fill="none" xmlns="http://www.w3.org/2000/svg">
<path d="M4.12007 0H59.8882C62.1444 0 64.0082 2.01073 64.0082 4.46284V59.5372C64.0082 61.9893 62.1934 64 59.8882 64H4.12007C1.86384 64 0 61.9893 0 59.5372V4.46284C0 2.01073 1.86384 0 4.12007 0Z" fill="#E60F05"/>
<path d="M45.1737 41.1464C44.6341 40.6069 43.9965 40.2636 43.2608 40.1165C42.525 39.9694 41.7893 40.0674 41.1026 40.3127C40.416 40.6069 39.8274 41.0483 39.435 41.6858C39.0426 42.2743 38.7974 43.01 38.7974 43.7456C38.7974 44.236 38.8955 44.7265 39.0917 45.1678C39.2878 45.6092 39.5331 46.0506 39.8764 46.3939C40.2198 46.7372 40.6122 47.0314 41.1026 47.1786C41.5441 47.3747 42.0346 47.4728 42.525 47.4728C43.2608 47.4728 43.9965 47.2766 44.5851 46.8353C45.1737 46.4429 45.6641 45.8544 45.9584 45.1678C46.2527 44.4812 46.3018 43.7456 46.1546 43.01C46.0565 42.3234 45.7132 41.6858 45.1737 41.1464ZM42.5741 45.6092C41.5931 45.6092 40.7593 44.7755 40.7593 43.7947C40.7593 42.8138 41.5931 41.9801 42.5741 41.9801C43.5551 41.9801 44.4379 42.8138 44.4379 43.7947C44.4379 44.7755 43.5551 45.6092 42.5741 45.6092Z" fill="white"/>
<path d="M51.7461 38.9885H50.6671C49.6861 38.9885 49.1956 38.5471 48.7542 38.0567C47.9694 37.1739 47.0375 36.4874 45.9584 35.9969C44.8793 35.5065 43.7512 35.3103 42.5741 35.3103H12.5564C12.4583 35.3103 12.3602 35.3594 12.2621 35.4084C12.164 35.4575 12.115 35.5065 12.0169 35.5556C11.9678 35.6046 11.9188 35.7027 11.8697 35.8008C11.8207 35.8989 11.7716 35.9969 11.7716 36.095V37.4682V41.0483C11.7716 41.5877 11.3302 41.3916 11.3302 42.2743V42.7648C11.3302 43.3533 11.6735 43.6966 12.2131 43.6966H13.194C13.3412 43.6966 13.6845 43.5985 13.6845 43.2061C13.6845 40.1655 16.186 37.6644 19.1289 37.6644C22.0718 37.6644 24.6714 40.0184 24.6714 43.2061C24.6714 43.5004 24.8676 43.6475 25.1128 43.6475H36.5411C36.8354 43.6475 37.0316 43.4513 37.0316 43.1571C37.0316 40.2636 39.3369 37.6153 42.5741 37.6153C45.6151 37.6153 48.0675 40.1165 48.0675 43.1571C48.0675 43.3533 48.1656 43.6475 48.558 43.6475H51.7952C52.2857 43.6475 52.7271 43.1571 52.7271 42.7157V39.9694C52.629 39.3318 52.3347 38.9885 51.7461 38.9885Z" fill="white"/>
<path d="M21.7775 41.1464C21.238 40.6069 20.6004 40.2636 19.8647 40.1165C19.1289 39.9694 18.3932 40.0674 17.7065 40.3127C17.0198 40.6069 16.4313 41.0483 16.0389 41.6858C15.6465 42.2743 15.4012 43.01 15.4012 43.7456C15.4012 44.236 15.4993 44.7265 15.6955 45.1678C15.8917 45.6092 16.137 46.0506 16.4803 46.3939C16.8236 46.7372 17.216 47.0314 17.7065 47.1786C18.148 47.3747 18.6384 47.4728 19.1289 47.4728C19.8647 47.4728 20.6004 47.2766 21.189 46.8353C21.7775 46.4429 22.268 45.8544 22.5623 45.1678C22.8566 44.4812 22.9057 43.7456 22.7585 43.01C22.6604 42.3234 22.3171 41.6858 21.7775 41.1464ZM19.178 45.6092C18.197 45.6092 17.3632 44.7755 17.3632 43.7947C17.3632 42.8138 18.197 41.9801 19.178 41.9801C20.1589 41.9801 21.0418 42.8138 21.0418 43.7947C21.0418 44.7755 20.1589 45.6092 19.178 45.6092Z" fill="white"/>
<path d="M11.9678 32.5149C12.0168 32.613 12.1149 32.6621 12.213 32.7111C12.3111 32.7602 12.4092 32.7602 12.5073 32.7602H42.525C45.1246 32.7111 47.6751 33.741 49.5389 35.5065C49.8332 35.8008 50.2256 36.4383 50.8142 36.4383H51.4028C51.6971 36.4383 51.7951 36.2912 51.7951 35.9479V31.6812C51.7951 25.6981 48.1656 20.892 41.9855 18.5379C35.5601 15.9877 20.257 16.9686 14.0769 18.587C13.0959 18.8322 11.7716 19.3226 11.7716 21.1862V30.9946L11.8207 31.9264C11.7716 32.1717 11.8697 32.3678 11.9678 32.5149ZM36.8844 22.2161C36.8844 21.9218 36.9825 21.7257 37.3749 21.7257H39.2878C43.8983 21.7257 47.0374 24.8644 48.7541 29.5234C48.8522 29.7686 48.8032 30.1609 48.3127 30.1609H37.3749C37.0806 30.1609 36.8844 29.8667 36.8844 29.6705V22.2161ZM25.7014 22.2161C25.7014 22.1671 25.7014 22.069 25.7504 22.0199C25.7504 21.9709 25.7995 21.9218 25.8485 21.8728C25.8976 21.8238 25.9466 21.7747 25.9957 21.7747C26.0447 21.7747 26.0938 21.7257 26.1919 21.7257H34.2848C34.5791 21.7257 34.7753 21.9218 34.7753 22.2161V29.6215C34.7753 29.8667 34.5791 30.1119 34.2848 30.1119H26.1428C25.8976 30.1119 25.6523 30.0138 25.6523 29.6215V22.2161H25.7014ZM14.3712 22.2161C14.3712 22.118 14.3712 21.7257 14.8126 21.7257H23.1018C23.3961 21.7257 23.5923 21.9218 23.5923 22.1671V29.6705C23.5923 29.8176 23.4942 30.1119 23.1018 30.1119H14.8126C14.4693 30.1119 14.3712 29.8176 14.3712 29.6215V22.2161Z" fill="white"/>
<path d="M80.7828 17.6552C80.7338 17.6552 80.6847 17.6552 80.6357 17.7042C80.5866 17.7042 80.5376 17.7533 80.5376 17.8023C80.4885 17.8513 80.4885 17.9004 80.4395 17.9004C80.4395 17.9494 80.3904 17.9985 80.3904 18.0475V39.9203C80.3904 42.5686 81.1262 44.4812 82.6467 45.6582C84.2653 46.9824 86.8648 47.2766 89.8568 46.59C89.9549 46.59 90.0039 46.541 90.053 46.4429C90.102 46.3939 90.1511 46.2958 90.1511 46.1977L90.102 42.4705C90.102 42.4214 90.102 42.3724 90.053 42.3234C90.053 42.2743 90.0039 42.2253 89.9549 42.1762C89.9058 42.1272 89.8568 42.1272 89.8078 42.1272C89.7587 42.1272 89.7097 42.1272 89.6606 42.1272C88.4834 42.3724 87.6006 42.2253 86.9629 41.7349C86.2763 41.1954 85.982 40.2146 85.982 38.7923V18.0475C85.982 17.9494 85.9329 17.8513 85.8839 17.8023C85.8348 17.7533 85.7367 17.7042 85.6386 17.7042H80.7828V17.6552Z" fill="black"/>
<path d="M101.923 23.9326C98.6855 23.9326 96.0369 25.0605 94.0259 27.2674C92.0149 29.4743 90.9849 32.2207 90.9849 35.4575C90.9849 38.7923 92.0149 41.5387 94.0259 43.7456C96.0369 45.9035 98.7346 47.0314 102.021 47.0314C104.522 47.0314 106.729 46.3448 108.593 44.9717C110.408 43.6475 111.781 41.7349 112.419 39.528C112.419 39.4789 112.419 39.4299 112.419 39.3808C112.419 39.3318 112.37 39.2828 112.37 39.2337C112.321 39.1847 112.321 39.1356 112.272 39.1356C112.223 39.1356 112.174 39.0866 112.125 39.0866H107.171C107.122 39.0866 107.024 39.0866 106.975 39.1356C106.926 39.1847 106.877 39.2337 106.877 39.2828C106.533 40.1655 105.896 40.9012 105.062 41.3425C104.179 41.882 103.198 42.1272 102.168 42.1272C100.549 42.1272 99.2741 41.6858 98.2931 40.705C97.3612 39.7732 96.7726 38.5962 96.6255 37.3211V37.223H112.566C112.664 37.223 112.713 37.174 112.811 37.1249C112.861 37.0759 112.91 36.9778 112.91 36.8797L112.959 35.3594C112.959 32.1226 111.929 29.3763 109.967 27.2184C107.759 25.0115 105.16 23.9326 101.923 23.9326ZM107.171 32.9073H96.5764L96.6255 32.8092C96.8707 31.6812 97.4593 30.6513 98.3422 29.8667C99.3232 28.9839 100.5 28.5916 101.972 28.5916C103.443 28.5916 104.669 29.033 105.601 29.8667C106.435 30.6513 107.024 31.6812 107.22 32.8092L107.171 32.9073Z" fill="black"/>
<path d="M216.402 41.6368C213.017 41.6368 210.32 38.8904 210.32 35.5556C210.32 32.2207 213.067 29.4743 216.402 29.4743C219.737 29.4743 222.484 32.2207 222.484 35.5556C222.484 38.8904 219.737 41.6368 216.402 41.6368ZM216.402 24.0797C211.742 24.0797 207.671 26.8261 205.807 31.1418C204.924 33.2015 204.728 35.5065 205.17 37.7625C205.611 39.9694 206.69 41.9801 208.309 43.5985C209.927 45.2169 211.938 46.2467 214.146 46.7372C216.353 47.1785 218.658 46.9333 220.767 46.0996C222.876 45.2169 224.642 43.7456 225.917 41.882C227.143 39.9694 227.83 37.8115 227.83 35.5556C227.781 29.2782 222.827 24.0797 216.402 24.0797ZM247.744 26.4828C246.321 24.8644 244.261 24.0797 241.662 24.0797C240.043 24.0797 238.572 24.423 237.395 25.0605C236.757 25.4529 236.168 25.9433 235.629 26.4828L235.482 26.6299V24.8644C235.482 24.8153 235.433 24.7172 235.384 24.6682C235.335 24.6192 235.236 24.5701 235.138 24.5701H230.626C230.577 24.5701 230.479 24.6192 230.43 24.6682C230.381 24.7172 230.332 24.8153 230.332 24.8644V46.0996C230.332 46.1487 230.332 46.1977 230.381 46.2467C230.381 46.2958 230.43 46.3448 230.479 46.3448C230.528 46.3939 230.626 46.4429 230.675 46.4429H235.58C235.629 46.4429 235.776 46.3939 235.776 46.3448C235.874 46.2958 235.874 46.1977 235.874 46.0996V33.79C235.874 32.3188 236.315 31.0437 237.1 30.21C237.934 29.3272 239.062 28.8858 240.534 28.8858C241.858 28.8858 242.839 29.2782 243.477 30.0628C244.114 30.8475 244.458 31.9755 244.458 33.3977V46.0996C244.458 46.1977 244.458 46.2958 244.507 46.3448C244.605 46.3939 244.703 46.4429 244.801 46.4429H249.608C249.706 46.4429 249.804 46.3939 249.853 46.3448C249.902 46.2958 249.902 46.2958 249.951 46.2467C249.951 46.1977 250 46.1487 250 46.0996V32.7602C249.902 30.1609 249.166 28.0521 247.744 26.4828ZM197.126 35.1142C197.126 38.5962 194.87 41.1954 191.534 41.1954C188.297 41.1954 185.943 38.6943 185.943 35.1142C185.943 31.7303 187.954 29.033 191.534 29.033C194.968 29.082 197.126 31.6322 197.126 35.1142ZM202.08 24.5701H197.567C197.518 24.5701 197.469 24.5701 197.42 24.6192C197.371 24.6192 197.322 24.6682 197.322 24.7172C197.273 24.7663 197.224 24.8644 197.224 24.9134V26.9241L197.077 26.777C195.556 25.0115 193.349 24.1287 190.504 24.1287C184.324 24.1287 180.4 28.9349 180.4 35.1632C180.4 38.2529 181.332 40.9012 183.147 42.9609C184.962 45.0697 187.463 46.1487 190.504 46.1487C193.153 46.1487 195.262 45.3149 196.733 43.6966L196.881 43.5004V45.8054C196.881 48.6989 194.526 50.9548 191.829 50.9548C189.082 50.9548 187.758 49.3364 187.12 48.1594C186.973 47.9142 186.924 47.8651 186.777 47.9142C186.286 48.1594 182.558 50.1211 182.362 50.2192C182.264 50.2682 182.264 50.4153 182.313 50.5134C183.834 53.8973 187.218 56.0552 191.878 56.0552C197.714 56.0552 202.423 51.9356 202.423 45.1188V24.8644C202.423 24.8153 202.423 24.7172 202.325 24.6682C202.227 24.6192 202.178 24.5701 202.08 24.5701ZM172.503 35.5065C172.503 39.2337 170.443 41.9801 166.863 41.9801C163.282 41.9801 161.222 39.0866 161.222 35.5065C161.222 32.0245 163.233 29.082 166.863 29.082C170.345 29.082 172.503 31.6812 172.503 35.5065ZM177.506 24.6192H172.994C172.945 24.6192 172.847 24.6682 172.749 24.7172C172.7 24.7663 172.7 24.8644 172.7 24.9134V26.9241L172.503 26.777C171.032 25.0115 168.776 24.1287 165.833 24.1287C159.506 24.1287 155.778 29.033 155.778 35.5065C155.778 41.9801 159.506 46.9333 165.833 46.9333C168.727 46.9333 171.032 46.0506 172.503 44.2851L172.7 44.0889V46.0996C172.7 46.1977 172.749 46.2467 172.749 46.3448C172.847 46.3939 172.945 46.4429 172.994 46.4429H177.506C177.604 46.4429 177.703 46.3939 177.703 46.3448C177.801 46.2958 177.801 46.1977 177.801 46.0996V24.9134C177.801 24.8644 177.801 24.7663 177.703 24.7172C177.654 24.7172 177.604 24.6192 177.506 24.6192ZM155.974 24.8644C155.974 24.8153 155.925 24.8153 155.925 24.7172C155.876 24.6682 155.827 24.6192 155.778 24.6192C155.729 24.5701 155.68 24.5701 155.631 24.5701H150.677C150.628 24.5701 150.579 24.5701 150.53 24.6192C150.432 24.6682 150.432 24.7172 150.383 24.8153L146.017 38.7923L141.603 24.8644C141.554 24.7663 141.554 24.7172 141.456 24.6682C141.407 24.6682 141.358 24.6192 141.26 24.6192H136.6C136.502 24.6192 136.453 24.6682 136.404 24.6682C136.355 24.7172 136.306 24.7663 136.306 24.8644L131.744 38.9885L127.281 24.8153C127.281 24.7172 127.232 24.6682 127.183 24.6192C127.134 24.6192 127.036 24.5701 126.986 24.5701H121.934C121.885 24.5701 121.836 24.5701 121.738 24.6192C121.689 24.6192 121.689 24.6682 121.689 24.7172C121.64 24.7663 121.64 24.8153 121.64 24.8644V25.0605L129.047 46.2467C129.047 46.2958 129.096 46.3448 129.145 46.3939C129.243 46.4429 129.292 46.4429 129.341 46.4429H133.853C133.902 46.4429 133.902 46.4429 133.951 46.4429C134 46.4429 134 46.3939 134.049 46.3939C134.099 46.3939 134.099 46.3448 134.099 46.3448C134.099 46.3448 134.148 46.2958 134.148 46.2467L138.758 32.4169L143.32 46.1977C143.32 46.2467 143.369 46.3448 143.418 46.3939C143.467 46.3939 143.565 46.4429 143.614 46.4429H148.175C148.274 46.4429 148.372 46.3939 148.372 46.3939C148.421 46.3448 148.47 46.2958 148.519 46.1977L155.974 25.0605V24.8644Z" fill="black"/>
<path d="M115.019 8.27047H119.021C120.078 8.27047 120.904 8.54772 121.501 9.10222C122.108 9.65672 122.411 10.3786 122.411 11.2679C122.411 11.8329 122.259 12.3351 121.956 12.7745C121.653 13.2035 121.265 13.4964 120.795 13.6533C121.36 13.7893 121.825 14.098 122.191 14.5792C122.568 15.0501 122.756 15.6202 122.756 16.2898C122.756 17.2001 122.443 17.9481 121.815 18.534C121.187 19.1094 120.355 19.3971 119.319 19.3971H115.019V8.27047ZM117.153 12.8687H118.691C119.183 12.8687 119.57 12.7431 119.853 12.492C120.135 12.2409 120.277 11.9009 120.277 11.4719C120.277 11.043 120.135 10.7082 119.853 10.4676C119.581 10.2165 119.188 10.0909 118.676 10.0909H117.153V12.8687ZM117.153 17.5924H118.911C119.434 17.5924 119.842 17.4668 120.135 17.2158C120.439 16.9542 120.591 16.5985 120.591 16.1486C120.591 15.6987 120.444 15.3378 120.151 15.0657C119.869 14.7937 119.466 14.6577 118.942 14.6577H117.153V17.5924Z" fill="black"/>
<path d="M129.119 11.6446V13.7475C128.91 13.7056 128.701 13.6847 128.492 13.6847C127.895 13.6847 127.414 13.8573 127.048 14.2026C126.681 14.5374 126.498 15.0919 126.498 15.8661V19.3971H124.411V11.676H126.436V12.8216C126.812 12.016 127.545 11.6132 128.633 11.6132C128.748 11.6132 128.91 11.6236 129.119 11.6446Z" fill="black"/>
<path d="M130.163 17.2942C130.163 16.6351 130.377 16.1067 130.806 15.7092C131.235 15.3116 131.79 15.0605 132.47 14.9559L134.369 14.6734C134.756 14.6211 134.95 14.438 134.95 14.1241C134.95 13.8312 134.835 13.5906 134.605 13.4022C134.385 13.2139 134.066 13.1198 133.647 13.1198C133.208 13.1198 132.857 13.2401 132.596 13.4807C132.345 13.7213 132.203 14.0195 132.172 14.3752L130.32 13.9829C130.393 13.3133 130.723 12.7222 131.309 12.2095C131.895 11.6969 132.669 11.4405 133.632 11.4405C134.783 11.4405 135.63 11.7178 136.174 12.2723C136.718 12.8163 136.99 13.5173 136.99 14.3752V18.1731C136.99 18.6334 137.022 19.0414 137.085 19.3971H135.17C135.117 19.167 135.091 18.8583 135.091 18.4712C134.6 19.235 133.841 19.6169 132.815 19.6169C132.02 19.6169 131.377 19.3867 130.885 18.9263C130.404 18.466 130.163 17.922 130.163 17.2942ZM133.255 18.0632C133.747 18.0632 134.15 17.9272 134.464 17.6552C134.788 17.3727 134.95 16.9123 134.95 16.2741V15.9289L133.208 16.1957C132.57 16.2898 132.25 16.6142 132.25 17.1687C132.25 17.4198 132.339 17.6342 132.517 17.8121C132.695 17.9795 132.941 18.0632 133.255 18.0632Z" fill="black"/>
<path d="M141.182 19.3971H139.095V11.676H141.182V19.3971ZM138.844 9.1493C138.844 8.79358 138.969 8.49017 139.22 8.23908C139.471 7.97752 139.775 7.84674 140.131 7.84674C140.486 7.84674 140.79 7.97229 141.041 8.22339C141.292 8.47448 141.418 8.78312 141.418 9.1493C141.418 9.49456 141.292 9.79273 141.041 10.0438C140.79 10.2949 140.486 10.4205 140.131 10.4205C139.775 10.4205 139.471 10.2949 139.22 10.0438C138.969 9.79273 138.844 9.49456 138.844 9.1493Z" fill="black"/>
<path d="M145.505 14.9559V19.3971H143.417V11.676H145.442V12.6333C145.662 12.2566 145.975 11.9689 146.384 11.7701C146.792 11.5713 147.221 11.4719 147.671 11.4719C148.581 11.4719 149.271 11.7597 149.742 12.3351C150.224 12.9 150.464 13.6324 150.464 14.5322V19.3971H148.377V14.8931C148.377 14.4328 148.257 14.0614 148.016 13.7789C147.786 13.4964 147.43 13.3552 146.949 13.3552C146.509 13.3552 146.159 13.5069 145.897 13.8103C145.635 14.1137 145.505 14.4955 145.505 14.9559Z" fill="black"/>
<path d="M151.924 17.2471L153.713 16.8548C153.734 17.1896 153.865 17.4721 154.105 17.7023C154.357 17.922 154.697 18.0318 155.126 18.0318C155.45 18.0318 155.701 17.9586 155.879 17.8121C156.057 17.6656 156.146 17.4825 156.146 17.2628C156.146 16.8757 155.869 16.6246 155.314 16.5095L154.294 16.2741C153.572 16.1172 153.028 15.8347 152.661 15.4267C152.306 15.0187 152.128 14.5322 152.128 13.9672C152.128 13.2662 152.4 12.6699 152.944 12.1781C153.499 11.6864 154.189 11.4405 155.016 11.4405C155.539 11.4405 155.999 11.519 156.397 11.676C156.795 11.8224 157.103 12.016 157.323 12.2566C157.543 12.4868 157.71 12.7222 157.825 12.9628C157.94 13.2035 158.014 13.4389 158.045 13.669L156.303 14.0614C156.261 13.7893 156.135 13.5487 155.926 13.3395C155.727 13.1302 155.429 13.0256 155.031 13.0256C154.759 13.0256 154.524 13.0988 154.325 13.2453C154.137 13.3918 154.043 13.5749 154.043 13.7946C154.043 14.1712 154.278 14.4014 154.749 14.4851L155.848 14.7205C156.591 14.8774 157.156 15.1651 157.543 15.5836C157.94 16.0021 158.139 16.5043 158.139 17.0902C158.139 17.7807 157.878 18.3771 157.354 18.8793C156.831 19.3815 156.094 19.6326 155.141 19.6326C154.597 19.6326 154.111 19.5541 153.682 19.3971C153.253 19.2298 152.918 19.0205 152.677 18.7694C152.447 18.5079 152.269 18.2515 152.144 18.0004C152.028 17.7389 151.955 17.4878 151.924 17.2471Z" fill="black"/>
<path d="M162.392 9.36901V11.676H163.946V13.5278H162.392V16.7606C162.392 17.085 162.465 17.3151 162.611 17.4512C162.758 17.5872 162.988 17.6552 163.302 17.6552C163.585 17.6552 163.799 17.6342 163.946 17.5924V19.3187C163.642 19.4442 163.25 19.507 162.768 19.507C162.015 19.507 161.419 19.2978 160.979 18.8793C160.54 18.4503 160.32 17.8644 160.32 17.1216V13.5278H158.923V11.676H159.315C159.703 11.676 159.996 11.5661 160.194 11.3464C160.404 11.1162 160.508 10.818 160.508 10.4519V9.36901H162.392Z" fill="black"/>
<path d="M167.714 17.153C168.101 17.5401 168.567 17.7336 169.111 17.7336C169.655 17.7336 170.115 17.5401 170.492 17.153C170.879 16.7659 171.073 16.2271 171.073 15.5366C171.073 14.846 170.879 14.3072 170.492 13.9201C170.115 13.533 169.655 13.3395 169.111 13.3395C168.567 13.3395 168.101 13.533 167.714 13.9201C167.337 14.3072 167.149 14.846 167.149 15.5366C167.149 16.2271 167.337 16.7659 167.714 17.153ZM166.207 12.6019C166.981 11.8277 167.949 11.4405 169.111 11.4405C170.272 11.4405 171.235 11.8277 171.999 12.6019C172.773 13.3761 173.16 14.3543 173.16 15.5366C173.16 16.7188 172.773 17.697 171.999 18.4712C171.235 19.2454 170.272 19.6326 169.111 19.6326C167.949 19.6326 166.981 19.2454 166.207 18.4712C165.443 17.697 165.061 16.7188 165.061 15.5366C165.061 14.3543 165.443 13.3761 166.207 12.6019Z" fill="black"/>
<path d="M179.517 11.6446V13.7475C179.307 13.7056 179.098 13.6847 178.889 13.6847C178.292 13.6847 177.811 13.8573 177.445 14.2026C177.079 14.5374 176.896 15.0919 176.896 15.8661V19.3971H174.808V11.676H176.833V12.8216C177.209 12.016 177.942 11.6132 179.03 11.6132C179.145 11.6132 179.307 11.6236 179.517 11.6446Z" fill="black"/>
<path d="M183.073 19.3971H180.985V11.676H182.978V12.6176C183.177 12.2618 183.491 11.9794 183.92 11.7701C184.349 11.5609 184.789 11.4562 185.239 11.4562C186.358 11.4562 187.122 11.8852 187.53 12.7431C188.085 11.8852 188.901 11.4562 189.979 11.4562C190.763 11.4562 191.423 11.7021 191.956 12.1938C192.5 12.6856 192.772 13.4179 192.772 14.3909V19.3971H190.748V14.8146C190.748 14.3752 190.633 14.0247 190.402 13.7632C190.183 13.4912 189.843 13.3552 189.382 13.3552C188.953 13.3552 188.608 13.5016 188.346 13.7946C188.085 14.0875 187.954 14.4485 187.954 14.8774V19.3971H185.882V14.8146C185.882 14.3752 185.767 14.0247 185.537 13.7632C185.307 13.4912 184.967 13.3552 184.517 13.3552C184.077 13.3552 183.727 13.5016 183.465 13.7946C183.203 14.0771 183.073 14.438 183.073 14.8774V19.3971Z" fill="black"/>
<path d="M196.41 14.6577H199.863C199.842 14.2288 199.685 13.8678 199.392 13.5749C199.109 13.2819 198.691 13.1354 198.136 13.1354C197.634 13.1354 197.226 13.2924 196.912 13.6063C196.598 13.9201 196.431 14.2706 196.41 14.6577ZM200.067 16.6665L201.809 17.1844C201.6 17.8958 201.186 18.4817 200.569 18.942C199.962 19.4024 199.204 19.6326 198.293 19.6326C197.184 19.6326 196.242 19.2611 195.468 18.5183C194.694 17.765 194.307 16.7606 194.307 15.5052C194.307 14.3125 194.683 13.3395 195.437 12.5862C196.19 11.8224 197.079 11.4405 198.105 11.4405C199.298 11.4405 200.229 11.7963 200.899 12.5077C201.579 13.2191 201.919 14.1974 201.919 15.4424C201.919 15.5261 201.914 15.6202 201.903 15.7249C201.903 15.8295 201.903 15.9132 201.903 15.976L201.887 16.0858H196.363C196.384 16.588 196.582 17.0065 196.959 17.3413C197.336 17.6761 197.786 17.8435 198.309 17.8435C199.198 17.8435 199.784 17.4512 200.067 16.6665Z" fill="black"/>
<path d="M208.271 11.6446V13.7475C208.062 13.7056 207.853 13.6847 207.644 13.6847C207.047 13.6847 206.566 13.8573 206.2 14.2026C205.833 14.5374 205.65 15.0919 205.65 15.8661V19.3971H203.563V11.676H205.587V12.8216C205.964 12.016 206.697 11.6132 207.785 11.6132C207.9 11.6132 208.062 11.6236 208.271 11.6446Z" fill="black"/>
<path d="M215.816 14.8774L214.859 13.3708L217.527 11.0796H213.069V9.21207H220.274V10.9541L217.637 13.1511C218.443 13.1825 219.133 13.4859 219.709 14.0614C220.295 14.6263 220.588 15.3587 220.588 16.2585C220.588 17.1791 220.232 17.9743 219.52 18.6439C218.809 19.303 217.862 19.6326 216.679 19.6326C215.539 19.6326 214.613 19.3187 213.901 18.6909C213.19 18.0527 212.803 17.2838 212.74 16.384L214.827 15.976C214.848 16.4991 215.026 16.928 215.361 17.2628C215.706 17.5976 216.146 17.765 216.679 17.765C217.203 17.765 217.621 17.6186 217.935 17.3256C218.249 17.0327 218.406 16.6665 218.406 16.2271C218.406 15.7563 218.249 15.3901 217.935 15.1285C217.632 14.8565 217.234 14.7205 216.742 14.7205C216.418 14.7205 216.109 14.7728 215.816 14.8774Z" fill="black"/>
<path d="M224.384 11.723C224.018 12.2985 223.835 13.1616 223.835 14.3125C223.835 15.4633 224.018 16.3265 224.384 16.9019C224.73 17.4564 225.242 17.7336 225.922 17.7336C226.592 17.7336 227.1 17.4564 227.445 16.9019C227.822 16.3369 228.01 15.4738 228.01 14.3125C228.01 13.1511 227.822 12.288 227.445 11.723C227.1 11.1685 226.592 10.8913 225.922 10.8913C225.242 10.8913 224.73 11.1685 224.384 11.723ZM222.564 17.9377C221.967 17.0274 221.669 15.819 221.669 14.3125C221.669 12.8059 221.967 11.5975 222.564 10.6873C223.327 9.54687 224.447 8.97667 225.922 8.97667C227.398 8.97667 228.512 9.54687 229.266 10.6873C229.872 11.6079 230.176 12.8163 230.176 14.3125C230.176 15.8086 229.872 17.017 229.266 17.9377C228.512 19.078 227.398 19.6482 225.922 19.6482C224.447 19.6482 223.327 19.078 222.564 17.9377Z" fill="black"/>
<path d="M234.148 11.723C233.782 12.2985 233.599 13.1616 233.599 14.3125C233.599 15.4633 233.782 16.3265 234.148 16.9019C234.493 17.4564 235.006 17.7336 235.686 17.7336C236.356 17.7336 236.863 17.4564 237.209 16.9019C237.585 16.3369 237.774 15.4738 237.774 14.3125C237.774 13.1511 237.585 12.288 237.209 11.723C236.863 11.1685 236.356 10.8913 235.686 10.8913C235.006 10.8913 234.493 11.1685 234.148 11.723ZM232.327 17.9377C231.731 17.0274 231.433 15.819 231.433 14.3125C231.433 12.8059 231.731 11.5975 232.327 10.6873C233.091 9.54687 234.211 8.97667 235.686 8.97667C237.162 8.97667 238.276 9.54687 239.029 10.6873C239.636 11.6079 239.94 12.8163 239.94 14.3125C239.94 15.8086 239.636 17.017 239.029 17.9377C238.276 19.078 237.162 19.6482 235.686 19.6482C234.211 19.6482 233.091 19.078 232.327 17.9377Z" fill="black"/>
<path d="M243.912 11.723C243.545 12.2985 243.362 13.1616 243.362 14.3125C243.362 15.4633 243.545 16.3265 243.912 16.9019C244.257 17.4564 244.77 17.7336 245.45 17.7336C246.12 17.7336 246.627 17.4564 246.972 16.9019C247.349 16.3369 247.537 15.4738 247.537 14.3125C247.537 13.1511 247.349 12.288 246.972 11.723C246.627 11.1685 246.12 10.8913 245.45 10.8913C244.77 10.8913 244.257 11.1685 243.912 11.723ZM242.091 17.9377C241.495 17.0274 241.196 15.819 241.196 14.3125C241.196 12.8059 241.495 11.5975 242.091 10.6873C242.855 9.54687 243.974 8.97667 245.45 8.97667C246.925 8.97667 248.04 9.54687 248.793 10.6873C249.4 11.6079 249.703 12.8163 249.703 14.3125C249.703 15.8086 249.4 17.017 248.793 17.9377C248.04 19.078 246.925 19.6482 245.45 19.6482C243.974 19.6482 242.855 19.078 242.091 17.9377Z" fill="black"/>
</svg>
